<svg viewBox="0 0 200 200" xmlns="http://www.w3.org/2000/svg" xmlns:xlink="http://www.w3.org/1999/xlink"><linearGradient id="a" gradientUnits="userSpaceOnUse" x1="84.91" x2="108.35" y1="163.71" y2="123.13"><stop offset="0" stop-color="#29b5f5"/><stop offset="1" stop-color="#7787e4"/></linearGradient><linearGradient id="b" x1="91.35" x2="101.45" xlink:href="#a" y1="144.26" y2="126.78"/><linearGradient id="c" x1="89.17" x2="101.64" xlink:href="#a" y1="132.4" y2="110.8"/><linearGradient id="d" gradientTransform="matrix(1 -.02 .03 .9 19.86 -37.42)" x1="99.76" x2="111.81" xlink:href="#a" y1="175.94" y2="155.08"/><linearGradient id="e" gradientTransform="matrix(.99963881 -.02687483 .02687483 .99963881 18.03 11.82)" x1="81.96" x2="102.89" xlink:href="#a" y1="160.99" y2="124.72"/><linearGradient id="f" x1="85.37" x2="101.35" xlink:href="#a" y1="119.66" y2="91.98"/><path d="m69.85 136s-14.1 2.77-14.16 8.58 17.25 9.82 34.13 10.06 31.41-2.05 40.4-5.66 10.25-8.72.85-12.36c0 0 9.18 4 1.51 8s-26.91 6.64-48.65 3.1-17.7-10-14.08-11.72z" fill="url(#a)"/><path d="m112.7 133.28a54.4 54.4 0 0 1 -10.7 1.83c-10.62.78-19.39-1.23-19.59-4.49-.1-1.56 1.8-3.13 5-4.42-6 1.91-9.94 4.87-9.76 7.91.29 4.62 10 7.67 21.59 6.8 7.4-.54 13.8-2.54 17.42-5.1l-3.89-2.53z" fill="url(#b)"/><path d="m121.41 123.73-5.33-4.58-2 .46a75.42 75.42 0 0 1 -10.65 1.51c-15 1.11-27.4-2-27.65-6.94a3.92 3.92 0 0 1 1-2.65c-4.08 2.2-6.45 4.78-6.31 7.39.39 6.15 14.53 10.08 31.53 8.87a97.71 97.71 0 0 0 19.41-4.06z" fill="url(#c)"/><path d="m128 97.86c-.49 0-1 0-1.44 0a11.2 11.2 0 0 1 -.8 22.12c.47.06.95.1 1.43.12 7.29.27 13.38-4.48 13.6-10.63s-5.48-11.34-12.79-11.61z" fill="url(#d)"/><path d="m142.63 143.71a4.22 4.22 0 0 1 .26 1.26c.31 6.93-17 13.5-38.78 14.66a106.82 106.82 0 0 1 -21.61-.89c6.6 2.35 16.3 3.55 27.07 3 19.5-1.05 35.05-7.51 34.74-14.45a5.6 5.6 0 0 0 -1.68-3.58z" fill="url(#e)"/><path d="m102.53 100c.46-.77 1-1.5 1.36-2.29a7.31 7.31 0 0 0 -.87-8.28c-1.12-1.44-2.37-2.8-3.37-4.31-4.06-6.16-3.33-12.32 1.93-17.47a41.9 41.9 0 0 1 13.34-8.4 52.79 52.79 0 0 1 6.26-2.25 48.73 48.73 0 0 0 -12.18 8.8c-5 4.43-6 11-2.29 16.17l1.81 2.49a8 8 0 0 1 .28 9.6 18.13 18.13 0 0 1 -6.27 5.94z" fill="#f12035"/><path d="m77.63 94.8s-14.58 2.84-15.22 8.88 16.34 10.33 34.93 10a104.15 104.15 0 0 0 24.33-3l4.12-4.58s-19.79 3.46-38.79.71-18.18-8.13-9.37-12.01z" fill="url(#f)"/><path d="m106.94 32.94s7.1 6.55 1 17.83-16.94 15.23-19.81 23.4 3.57 14.53 8.79 22c0 0-14.38-9.79-15.14-19.55-.78-10.45 15.85-18.24 20.59-24.51 0 0 8.63-8.33 4.57-19.17z" fill="#f12035"/></svg>