<svg viewBox="0 0 200 200" xmlns="http://www.w3.org/2000/svg" xmlns:xlink="http://www.w3.org/1999/xlink"><linearGradient id="a" gradientUnits="userSpaceOnUse" x1="93.17" x2="125.79" y1="86.35" y2="86.35"><stop offset="0" stop-color="#a5dd00"/><stop offset="1" stop-color="#4dc600"/></linearGradient><linearGradient id="b" x1="61.51" x2="138.49" xlink:href="#a" y1="86.35" y2="86.35"/><path d="m70.24 139.93-8.03 4.63v13.84l5.06-3.04v-7.91l2.97-1.71 2.97 1.71v7.91l5.06 3.04v-13.84z" fill="#313338"/><path d="m82.26 144.56v9.27l8.03 4.64 8.03-4.64v-9.27l-8.03-4.63z" fill="#86dc00"/><path d="m113.42 129.45v12.19l-3-1.71-8 4.63v9.27l8 4.64 8-4.64v-21.46zm0 21.48-3 1.74-3-1.74v-3.47l3-1.73 3 1.73z" fill="#313338"/><path d="m127.59 150.93v-2.35.01-1.13l3.01-1.73 3 1.73v1.94l5.03-2.9v-1.94l-8.03-4.63-8.03 4.63v9.27l8.03 4.64 5.02-2.9z" fill="#313338"/><path d="m128.77 148.14v2.11l1.83 1.06 1.83-1.06v-2.11l-1.83-1.05z" fill="#86dc00"/><path d="m125.79 102.5h-32.62v-7.6h5v2.6h22.62v-8.81h-27.62v-18.49h32.62v7.38h-5v-2.38h-22.62v8.49h27.62z" fill="url(#a)"/><path d="m100 41.9-1.24.72-37.25 21.49v44.45l14.71 8.49 23.78 13.75 38.49-22.23v-44.45zm33.49 63.79-33.49 19.31-12.8-7.38h2.86v-47.36h-5v42.38h-6.49l-12.06-7v-38.64l33.49-19.33 33.49 19.33z" fill="url(#b)"/></svg>